<?xml version="1.0" encoding="utf-8"?>
<svg xmlns="http://www.w3.org/2000/svg" xmlns:xlink="http://www.w3.org/1999/xlink" version= "1.1" width="1920px" height="1300px" viewBox="-600 64 1920 1300">
<g id="layer1">
<g style="fill:rgb(0,174,199); fill-opacity:1.0; stroke-linejoin: miter">
<path d="M-600.00104,63.017696C-600.2613,63.017696,-600.5109,63.121082,-600.69495,63.305115C-600.87897,63.489147,-600.98236,63.738743,-600.98236,63.999L-600.9814,1364.0C-600.9814,1364.542,-600.542,1364.9813,-600.00006,1364.9813L1320.001,1364.9823C1320.2612,1364.9823,1320.5107,1364.8789,1320.6948,1364.6948C1320.8789,1364.5107,1320.9822,1364.2612,1320.9822,1364.001L1320.9812,64.0C1320.9812,63.458042,1320.542,63.018696,1320.0,63.018696L-600.00104,63.017696 Z"/>
</g>
<g>
<g style="fill:rgb(0,145,166); fill-opacity:1.0; stroke-linejoin: miter">
<path d="M867.8206,325.9865L867.8206,325.9873L-94.6812,325.98517C-95.911026,325.98517,-96.908066,324.98825,-96.908066,323.75848C-96.908066,322.5287,-95.911026,321.53177,-94.6812,321.53177L-94.6812,321.53244L867.8206,321.53296C869.05084,321.53296,870.04767,322.53003,870.04767,323.7596C870.04767,324.98956,869.05084,325.9865,867.8206,325.9865 Z"/>
</g>
<g style="fill:rgb(0,145,166); fill-opacity:1.0; stroke-linejoin: miter">
<path d="M867.8206,523.3375L867.8206,523.3385L-94.68126,523.33606C-95.91104,523.33606,-96.90808,522.33923,-96.90808,521.10925C-96.90808,519.8794,-95.91104,518.88257,-94.68126,518.88257L-94.68126,518.8834L867.8206,518.88416C869.05084,518.88416,870.0474,519.8812,870.0474,521.11084C870.0474,522.34076,869.05084,523.3375,867.8206,523.3375 Z"/>
</g>
<g style="fill:rgb(0,145,166); fill-opacity:1.0; stroke-linejoin: miter">
<path d="M867.8206,720.6887L867.8206,720.6897L-94.681366,720.68677C-95.911194,720.68677,-96.90822,719.68994,-96.90822,718.4601C-96.90822,717.23035,-95.911194,716.2333,-94.681366,716.2333L-94.681366,716.23425L867.8206,716.2352C869.0506,716.2352,870.0474,717.2322,870.0474,718.46204C870.0474,719.6918,869.0506,720.6887,867.8206,720.6887 Z"/>
</g>
<g style="fill:rgb(0,145,166); fill-opacity:1.0; stroke-linejoin: miter">
<path d="M867.8204,918.0397L867.8204,918.0404L-94.68141,918.03735C-95.91121,918.03735,-96.90823,917.0405,-96.90823,915.81067C-96.90823,914.58093,-95.91121,913.584,-94.68141,913.584L-94.68141,913.58484L867.8204,913.5862C869.05035,913.5862,870.0472,914.583,870.0472,915.8126C870.0472,917.0426,869.05035,918.0397,867.8204,918.0397 Z"/>
</g>
<g style="fill:rgb(0,145,166); fill-opacity:1.0; stroke-linejoin: miter">
<path d="M867.8201,1115.3906L867.8201,1115.3914L-94.68144,1115.3883C-95.91127,1115.3883,-96.90825,1114.3916,-96.90825,1113.1616C-96.90825,1111.9319,-95.91127,1110.9349,-94.68144,1110.9349L-94.68144,1110.9357L867.8201,1110.937C869.05023,1110.937,870.0472,1111.9341,870.0472,1113.164C870.0472,1114.3937,869.05023,1115.3906,867.8201,1115.3906 Z"/>
</g>
<g style="fill:rgb(0,145,166); fill-opacity:1.0; stroke-linejoin: miter">
<path d="M191.4452,237.21024L191.4452,237.21106L191.44467,1199.7107C191.44467,1200.9404,190.44778,1201.9377,189.21799,1201.9377C187.9882,1201.9377,186.99121,1200.9404,186.99121,1199.7107L186.99121,1199.7118L186.99158,237.21024C186.99158,235.98029,187.98865,234.98337,189.21844,234.98337C190.44824,234.98337,191.4452,235.98029,191.4452,237.21024 Z"/>
</g>
<g style="fill:rgb(0,145,166); fill-opacity:1.0; stroke-linejoin: miter">
<path d="M388.79648,237.2104L388.79648,237.21126L388.79587,1199.7112C388.79587,1200.941,387.79892,1201.9381,386.5691,1201.938C385.33932,1201.938,384.34235,1200.9409,384.34235,1199.7112L384.34235,1199.7122L384.34286,237.21039C384.34286,235.98045,385.33994,234.98355,386.56964,234.98355C387.7996,234.98355,388.79648,235.98047,388.79648,237.2104 Z"/>
</g>
<g style="fill:rgb(0,145,166); fill-opacity:1.0; stroke-linejoin: miter">
<path d="M586.14777,237.21059L586.14777,237.21143L586.1469,1199.7114C586.1469,1200.9413,585.14996,1201.9382,583.9203,1201.9382C582.6905,1201.9382,581.6934,1200.9413,581.6934,1199.7114L581.6934,1199.7124L581.6942,237.21059C581.6942,235.98065,582.6912,234.98373,583.921,234.98373C585.1508,234.98373,586.14777,235.98065,586.14777,237.21059 Z"/>
</g>
<g style="fill:rgb(0,145,166); fill-opacity:1.0; stroke-linejoin: miter">
<path d="M783.4991,237.21078L783.4991,237.21164L783.4985,1199.712C783.4985,1200.9418,782.5014,1201.9388,781.27167,1201.9388C780.04193,1201.9388,779.04474,1200.9418,779.04474,1199.712L779.04474,1199.713L779.04584,237.21078C779.04584,235.98085,780.04266,234.98393,781.2724,234.98393C782.50214,234.98393,783.4991,235.98085,783.4991,237.21078 Z"/>
</g>
<g style="fill:rgb(0,145,166); fill-opacity:1.0; stroke-linejoin: miter">
<path d="M-5.9060516,237.20984L-5.9060516,237.21085L-5.906395,1199.7102C-5.906395,1200.94,-6.903328,1201.9373,-8.133118,1201.9373C-9.362907,1201.9373,-10.359894,1200.94,-10.359894,1199.7102L-10.359894,1199.7113L-10.359535,237.20984C-10.359535,235.98007,-9.362595,234.98314,-8.132751,234.98317C-6.9029694,234.98317,-5.9060516,235.98007,-5.9060516,237.20984 Z"/>
</g>
<g style="fill:rgb(0,145,166); fill-opacity:1.0; stroke-linejoin: miter">
<path d="M-53.16922,521.4286L-43.052483,521.4292L-32.935875,521.42975Q-32.935814,581.69354,-32.93586,641.9569Q-43.052437,641.9574,-53.16913,641.958Q-53.169174,581.6935,-53.16922,521.4286"/>
</g>
<g style="fill:rgb(0,145,166); fill-opacity:1.0; stroke-linejoin: miter">
<path d="M-41.616455,504.01447L-43.07184,504.01456L-44.527214,504.01456Q-44.52723,584.2534,-44.5272,664.4922Q-43.0718,664.49243,-41.616417,664.49243Q-41.61647,584.2535,-41.616455,504.01447"/>
</g>
<g style="fill:rgb(0,145,166); fill-opacity:1.0; stroke-linejoin: miter">
<path d="M-27.3525,549.64185L-17.235847,549.64246L-7.1191406,549.64294Q-7.1191483,609.90674,-7.1191177,670.1704Q-17.235817,670.1709,-27.352455,670.17114Q-27.3525,609.9065,-27.3525,549.64185"/>
</g>
<g style="fill:rgb(0,145,166); fill-opacity:1.0; stroke-linejoin: miter">
<path d="M-15.799812,532.22766L-17.255203,532.22766L-18.710533,532.2285Q-18.710495,612.4667,-18.710495,692.70544Q-17.255165,692.70557,-15.799782,692.70557Q-15.799782,612.4667,-15.799812,532.22766"/>
</g>
<g style="fill:rgb(0,145,166); fill-opacity:1.0; stroke-linejoin: miter">
<path d="M-1.5358047,596.4501L8.580841,596.45074L18.697502,596.4511Q18.697495,656.71484,18.697441,716.9785Q8.580826,716.9789,-1.5358734,716.9794Q-1.5358658,656.7147,-1.5358047,596.4501"/>
</g>
<g style="fill:rgb(0,145,166); fill-opacity:1.0; stroke-linejoin: miter">
<path d="M10.016876,579.036L8.561493,579.036L7.1061096,579.0362Q7.106102,659.2748,7.10614,739.5138Q8.56147,739.5138,10.016899,739.51404Q10.016861,659.2748,10.016876,579.036"/>
</g>
<g style="fill:rgb(0,145,166); fill-opacity:1.0; stroke-linejoin: miter">
<path d="M24.280838,638.3507L34.3975,638.3511L44.514153,638.35156Q44.51409,698.61523,44.514088,758.87915Q34.397434,758.8793,24.280819,758.8799Q24.280827,698.61523,24.280838,638.3507"/>
</g>
<g style="fill:rgb(0,145,166); fill-opacity:1.0; stroke-linejoin: miter">
<path d="M35.833572,620.93616L34.37819,620.9364L32.922768,620.9366Q32.922756,701.1752,32.92275,781.41406Q34.37812,781.41406,35.833508,781.4143Q35.83352,701.1752,35.833572,620.93616"/>
</g>
<g style="fill:rgb(0,145,166); fill-opacity:1.0; stroke-linejoin: miter">
<path d="M50.09745,665.9226L60.21415,665.9232L70.33084,665.9237Q70.330826,726.1874,70.33077,786.4509Q60.21413,786.4513,50.097435,786.4518Q50.097485,726.1874,50.09745,665.9226"/>
</g>
<g style="fill:rgb(0,145,166); fill-opacity:1.0; stroke-linejoin: miter">
<path d="M61.65017,648.5084L60.19484,648.50854L58.739445,648.50867Q58.739433,728.74756,58.739426,808.9862Q60.194817,808.9863,61.65015,808.98645Q61.65016,728.74756,61.65017,648.5084"/>
</g>
<g style="fill:rgb(0,145,166); fill-opacity:1.0; stroke-linejoin: miter">
<path d="M76.60606,733.1334L86.72271,733.13306L96.83942,733.1328Q96.83942,672.8689,96.839516,612.6052Q86.722786,612.60486,76.60607,612.60425Q76.60603,672.8689,76.60606,733.1334"/>
</g>
<g style="fill:rgb(0,145,166); fill-opacity:1.0; stroke-linejoin: miter">
<path d="M88.15879,750.5481L86.7034,750.5476L85.247986,750.5476Q85.24803,670.30884,85.2481,590.07Q86.70339,590.0698,88.15882,590.0697Q88.1588,670.30884,88.15879,750.5481"/>
</g>
<g style="fill:rgb(0,145,166); fill-opacity:1.0; stroke-linejoin: miter">
<path d="M102.42273,704.9204L112.53943,704.92004L122.65612,704.91943Q122.656204,644.6559,122.65622,584.3922Q112.53953,584.3916,102.42279,584.39105Q102.42277,644.65564,102.42273,704.9204"/>
</g>
<g style="fill:rgb(0,145,166); fill-opacity:1.0; stroke-linejoin: miter">
<path d="M113.97553,722.33496L112.52014,722.3347L111.064766,722.3345Q111.06486,642.0956,111.064865,561.8568Q112.52017,561.8567,113.975555,561.85675Q113.97554,642.09564,113.97553,722.33496"/>
</g>
<g style="fill:rgb(0,145,166); fill-opacity:1.0; stroke-linejoin: miter">
<path d="M128.2395,658.11237L138.35625,658.1119L148.4729,658.11145Q148.47293,597.8478,148.47302,537.584Q138.35628,537.5836,128.23955,537.58295Q128.23953,597.8478,128.2395,658.11237"/>
</g>
<g style="fill:rgb(0,145,166); fill-opacity:1.0; stroke-linejoin: miter">
<path d="M139.79222,675.52673L138.33685,675.5266L136.88147,675.5265Q136.8815,595.2876,136.8815,515.0487Q138.33688,515.0487,139.79236,515.0486Q139.79234,595.2876,139.79222,675.52673"/>
</g>
<g style="fill:rgb(0,145,166); fill-opacity:1.0; stroke-linejoin: miter">
<path d="M154.05627,616.21204L164.17293,616.2116L174.28967,616.21124Q174.28967,555.94745,174.28976,495.6836Q164.17303,495.6831,154.05637,495.68253Q154.05635,555.9474,154.05627,616.21204"/>
</g>
<g style="fill:rgb(0,145,166); fill-opacity:1.0; stroke-linejoin: miter">
<path d="M165.60898,633.6266L164.1536,633.62646L162.69821,633.6262Q162.69832,553.38745,162.69833,473.1484Q164.15372,473.14822,165.6091,473.14822Q165.6091,553.38745,165.60898,633.6266"/>
</g>
<g style="fill:rgb(0,145,166); fill-opacity:1.0; stroke-linejoin: miter">
<path d="M179.87296,588.64L189.98976,588.6398L200.10645,588.6394Q200.10654,528.37555,200.10654,468.11172Q189.98987,468.11118,179.87314,468.1107Q179.87308,528.37555,179.87296,588.64"/>
</g>
<g style="fill:rgb(0,145,166); fill-opacity:1.0; stroke-linejoin: miter">
<path d="M191.42578,606.05457L189.97047,606.05444L188.51508,606.05444Q188.5151,525.8154,188.51518,445.57648Q189.97049,445.57614,191.42584,445.57614Q191.4258,525.8154,191.42578,606.05457"/>
</g>
<g style="fill:rgb(0,145,166); fill-opacity:1.0; stroke-linejoin: miter">
<path d="M203.51917,572.3817L213.63583,572.3822L223.75249,572.3828Q223.75237,632.6465,223.75237,692.91016Q213.63562,692.91064,203.51895,692.911Q203.51904,632.64636,203.51917,572.3817"/>
</g>
<g style="fill:rgb(0,145,166); fill-opacity:1.0; stroke-linejoin: miter">
<path d="M215.07181,554.96735L213.61642,554.96735L212.16104,554.96735Q212.16092,635.2063,212.16092,715.4452Q213.61632,715.4453,215.07162,715.4453Q215.07169,635.20654,215.07181,554.96735"/>
</g>
<g style="fill:rgb(0,145,166); fill-opacity:1.0; stroke-linejoin: miter">
<path d="M229.33572,600.5949L239.45258,600.5954L249.56923,600.59595Q249.5692,660.85974,249.56908,721.1234Q239.45235,721.1239,229.33562,721.1244Q229.33571,660.8595,229.33572,600.5949"/>
</g>
<g style="fill:rgb(0,145,166); fill-opacity:1.0; stroke-linejoin: miter">
<path d="M240.88857,583.1804L239.43326,583.1805L237.9778,583.1807Q237.97777,663.41943,237.97757,743.6583Q239.43303,743.6583,240.88834,743.65857Q240.88844,663.41943,240.88857,583.1804"/>
</g>
<g style="fill:rgb(0,145,166); fill-opacity:1.0; stroke-linejoin: miter">
<path d="M255.15236,647.4031L265.2691,647.40356L275.3858,647.4041Q275.3858,707.66797,275.38574,767.9319Q265.2691,767.932,255.15236,767.9326Q255.15236,707.66785,255.15236,647.4031"/>
</g>
<g style="fill:rgb(0,145,166); fill-opacity:1.0; stroke-linejoin: miter">
<path d="M266.70514,629.9889L265.2497,629.989L263.79443,629.98914Q263.79443,710.228,263.7942,790.4669Q265.2496,790.4669,266.70502,790.4669Q266.70514,710.228,266.70514,629.9889"/>
</g>
<g style="fill:rgb(0,145,166); fill-opacity:1.0; stroke-linejoin: miter">
<path d="M280.96915,689.30396L291.08594,689.3042L301.2025,689.3047Q301.2025,749.56836,301.20233,809.8323Q291.08572,809.83276,280.969,809.8331Q280.96915,749.56836,280.96915,689.30396"/>
</g>
<g style="fill:rgb(0,145,166); fill-opacity:1.0; stroke-linejoin: miter">
<path d="M292.52203,671.8895L291.06665,671.8895L289.61118,671.8898Q289.611,752.1284,289.61096,832.3673Q291.06635,832.36755,292.5218,832.36755Q292.52185,752.1284,292.52203,671.8895"/>
</g>
<g style="fill:rgb(0,145,166); fill-opacity:1.0; stroke-linejoin: miter">
<path d="M306.7859,716.87573L316.90256,716.87634L327.0193,716.87683Q327.0193,777.1405,327.01892,837.4042Q316.90234,837.40454,306.78558,837.4049Q306.78583,777.1405,306.7859,716.87573"/>
</g>
<g style="fill:rgb(0,145,166); fill-opacity:1.0; stroke-linejoin: miter">
<path d="M318.33868,699.46155L316.8833,699.46155L315.4279,699.4617Q315.42773,779.7003,315.4276,859.9392Q316.88312,859.93945,318.33844,859.9396Q318.33868,779.70056,318.33868,699.46155"/>
</g>
<g style="fill:rgb(0,145,166); fill-opacity:1.0; stroke-linejoin: miter">
<path d="M336.106,752.83777L346.22253,752.83826L356.33926,752.8385Q356.33932,813.10254,356.33908,873.36646Q346.22235,873.3666,336.10574,873.36694Q336.10596,813.10254,336.106,752.83777"/>
</g>
<g style="fill:rgb(0,145,166); fill-opacity:1.0; stroke-linejoin: miter">
<path d="M347.6586,735.42334L346.2033,735.42334L344.74783,735.42346Q344.74783,815.6626,344.74765,895.901Q346.20306,895.90125,347.65842,895.9015Q347.65857,815.6626,347.6586,735.42334"/>
</g>
<g style="fill:rgb(0,145,166); fill-opacity:1.0; stroke-linejoin: miter">
<path d="M361.9227,781.051L372.03934,781.0514L382.15616,781.052Q382.15588,841.3157,382.15588,901.57947Q372.03912,901.5796,361.92252,901.5803Q361.92252,841.31555,361.9227,781.051"/>
</g>
<g style="fill:rgb(0,145,166); fill-opacity:1.0; stroke-linejoin: miter">
<path d="M373.47552,763.6367L372.02014,763.63684L370.5648,763.63696Q370.56436,843.8755,370.5643,924.11426Q372.01965,924.1145,373.4751,924.11475Q373.4753,843.8756,373.47552,763.6367"/>
</g>
<g style="fill:rgb(0,145,166); fill-opacity:1.0; stroke-linejoin: miter">
<path d="M387.73947,827.8594L397.85614,827.85986L407.97284,827.8606Q407.9727,888.124,407.97266,948.3878Q397.85593,948.38806,387.7392,948.38855Q387.73923,888.124,387.73947,827.8594"/>
</g>
<g style="fill:rgb(0,145,166); fill-opacity:1.0; stroke-linejoin: miter">
<path d="M399.29214,810.44507L397.83682,810.44507L396.38135,810.44507Q396.3812,890.68396,396.38116,970.9226Q397.83664,970.92285,399.292,970.9231Q399.29205,890.68396,399.29214,810.44507"/>
</g>
<g style="fill:rgb(0,145,166); fill-opacity:1.0; stroke-linejoin: miter">
<path d="M413.55603,869.75977L423.67288,869.7605L433.78952,869.76074Q433.7893,930.02454,433.78928,990.2881Q423.6726,990.2887,413.55585,990.28906Q413.5559,930.02454,413.55603,869.75977"/>
</g>
<g style="fill:rgb(0,145,166); fill-opacity:1.0; stroke-linejoin: miter">
<path d="M425.10886,852.3456L423.65347,852.3456L422.198,852.3457Q422.19788,932.58435,422.19754,1012.82324Q423.65295,1012.82336,425.10852,1012.8236Q425.10855,932.58435,425.10886,852.3456"/>
</g>
<g style="fill:rgb(0,145,166); fill-opacity:1.0; stroke-linejoin: miter">
<path d="M439.37292,897.3319L449.4895,897.33264L459.6063,897.33276Q459.60605,957.5967,459.60587,1017.8602Q449.48907,1017.8606,439.37256,1017.86084Q439.37274,957.59644,439.37292,897.3319"/>
</g>
<g style="fill:rgb(0,145,166); fill-opacity:1.0; stroke-linejoin: miter">
<path d="M450.9255,879.9176L449.4703,879.9177L448.0149,879.91785Q448.01456,960.15674,448.01456,1040.3954Q449.46982,1040.3954,450.92526,1040.3956Q450.92545,960.15674,450.9255,879.9176"/>
</g>
<g style="fill:rgb(0,145,166); fill-opacity:1.0; stroke-linejoin: miter">
<path d="M466.7752,910.1011L476.89185,910.1018L487.0085,910.1019Q487.0087,970.36597,487.00882,1030.63Q476.89212,1030.6302,466.77548,1030.6306Q466.77545,970.36597,466.7752,910.1011"/>
</g>
<g style="fill:rgb(0,145,166); fill-opacity:1.0; stroke-linejoin: miter">
<path d="M478.32806,892.68677L476.87265,892.6869L475.41727,892.68713Q475.41742,972.9259,475.41745,1053.1652Q476.8729,1053.1652,478.32816,1053.1652Q478.32816,972.9259,478.32806,892.68677"/>
</g>
<g style="fill:rgb(0,145,166); fill-opacity:1.0; stroke-linejoin: miter">
<path d="M492.59195,938.31445L502.70865,938.3152L512.8254,938.3154Q512.8255,998.57947,512.82574,1058.8433Q502.70892,1058.8439,492.5922,1058.844Q492.59195,998.57935,492.59195,938.31445"/>
</g>
<g style="fill:rgb(0,145,166); fill-opacity:1.0; stroke-linejoin: miter">
<path d="M504.14468,920.9L502.68948,920.90015L501.23398,920.9011Q501.23422,1001.1394,501.23438,1081.3783Q502.6895,1081.3787,504.145,1081.3787Q504.14468,1001.1394,504.14468,920.9"/>
</g>
<g style="fill:rgb(0,145,166); fill-opacity:1.0; stroke-linejoin: miter">
<path d="M518.4089,985.1228L528.5255,985.1233L538.642,985.1238Q538.64215,1045.3877,538.64215,1105.6516Q528.52545,1105.6519,518.4089,1105.6522Q518.409,1045.3877,518.4089,985.1228"/>
</g>
<g style="fill:rgb(0,145,166); fill-opacity:1.0; stroke-linejoin: miter">
<path d="M529.9615,967.7084L528.50604,967.7092L527.05084,967.709Q527.05084,1047.9478,527.05084,1128.1866Q528.5062,1128.1866,529.9616,1128.1869Q529.9615,1047.9478,529.9615,967.7084"/>
</g>
<g style="fill:rgb(0,145,166); fill-opacity:1.0; stroke-linejoin: miter">
<path d="M544.2255,1027.0234L554.342,1027.0242L564.4589,1027.0247Q564.45886,1087.2881,564.45886,1147.5521Q554.3422,1147.5524,544.2255,1147.5529Q544.2254,1087.288,544.2255,1027.0234"/>
</g>
<g style="fill:rgb(0,145,166); fill-opacity:1.0; stroke-linejoin: miter">
<path d="M555.778,1009.60913L554.32275,1009.60913L552.8674,1009.60925Q552.8675,1089.8479,552.8675,1170.0873Q554.32294,1170.0873,555.7784,1170.0873Q555.77795,1089.8479,555.778,1009.60913"/>
</g>
<g style="fill:rgb(0,145,166); fill-opacity:1.0; stroke-linejoin: miter">
<path d="M570.0423,1054.5956L580.159,1054.5961L590.2755,1054.5964Q590.2757,1114.8602,590.2757,1175.124Q580.15894,1175.1246,570.0423,1175.125Q570.04224,1114.8602,570.0423,1054.5956"/>
</g>
<g style="fill:rgb(0,145,166); fill-opacity:1.0; stroke-linejoin: miter">
<path d="M581.5949,1037.1813L580.13965,1037.1815L578.6844,1037.1823Q578.6844,1117.4203,578.68427,1197.659Q580.1397,1197.659,581.5949,1197.6594Q581.59503,1117.4203,581.5949,1037.1813"/>
</g>
<g style="fill:rgb(0,145,166); fill-opacity:1.0; stroke-linejoin: miter">
<path d="M602.2642,1130.9949L612.3809,1130.994L622.4976,1130.9943Q622.4976,1070.73,622.4975,1010.4663Q612.38055,1010.4657,602.2641,1010.4651Q602.2641,1070.7299,602.2642,1130.9949"/>
</g>
<g style="fill:rgb(0,145,166); fill-opacity:1.0; stroke-linejoin: miter">
<path d="M613.8171,1148.409L612.3614,1148.409L610.90607,1148.4097Q610.9062,1068.1699,610.90607,987.9309Q612.3614,987.9304,613.8167,987.9304Q613.81696,1068.1699,613.8171,1148.409"/>
</g>
<g style="fill:rgb(0,145,166); fill-opacity:1.0; stroke-linejoin: miter">
<path d="M628.0809,1102.7816L638.1976,1102.7811L648.31415,1102.7808Q648.3144,1042.517,648.3143,982.2529Q638.19745,982.25244,628.0806,982.25195Q628.0809,1042.517,628.0809,1102.7816"/>
</g>
<g style="fill:rgb(0,145,166); fill-opacity:1.0; stroke-linejoin: miter">
<path d="M639.6337,1120.196L638.1783,1120.196L636.7231,1120.1958Q636.72284,1039.957,636.72284,959.718Q638.17804,959.71765,639.6337,959.71765Q639.6337,1039.957,639.6337,1120.196"/>
</g>
<g style="fill:rgb(0,145,166); fill-opacity:1.0; stroke-linejoin: miter">
<path d="M653.89777,1055.9735L664.01447,1055.9731L674.1313,1055.9728Q674.13104,995.7086,674.13104,935.4448Q664.01434,935.4446,653.89764,935.44385Q653.89764,995.7086,653.89777,1055.9735"/>
</g>
<g style="fill:rgb(0,145,166); fill-opacity:1.0; stroke-linejoin: miter">
<path d="M665.4505,1073.3877L663.9952,1073.3877L662.53986,1073.3876Q662.5395,993.14856,662.5396,912.90955Q663.99506,912.9094,665.4504,912.9093Q665.4504,993.14856,665.4505,1073.3877"/>
</g>
<g style="fill:rgb(0,145,166); fill-opacity:1.0; stroke-linejoin: miter">
<path d="M679.7144,1014.0731L689.8311,1014.0725L699.9478,1014.07214Q699.94794,953.80835,699.9478,893.5443Q689.8309,893.5438,679.7142,893.54333Q679.7144,953.80835,679.7144,1014.0731"/>
</g>
<g style="fill:rgb(0,145,166); fill-opacity:1.0; stroke-linejoin: miter">
<path d="M691.2673,1031.4877L689.8118,1031.4885L688.3564,1031.4874Q688.3564,951.24805,688.3564,871.00903Q689.8117,871.00903,691.267,871.00867Q691.2673,951.2483,691.2673,1031.4877"/>
</g>
<g style="fill:rgb(0,145,166); fill-opacity:1.0; stroke-linejoin: miter">
<path d="M705.5312,986.501L715.64777,986.5005L725.76447,986.5Q725.76447,926.2363,725.7646,865.9723Q715.6479,865.9719,705.5312,865.97144Q705.5312,926.2363,705.5312,986.501"/>
</g>
<g style="fill:rgb(0,145,166); fill-opacity:1.0; stroke-linejoin: miter">
<path d="M717.0837,1003.9155L715.62823,1003.9155L714.17316,1003.91516Q714.17316,923.6763,714.1728,843.437Q715.62836,843.4369,717.0838,843.43677Q717.0839,923.676,717.0837,1003.9155"/>
</g>
<g style="fill:rgb(0,145,166); fill-opacity:1.0; stroke-linejoin: miter">
<path d="M733.03046,881.6604L743.14716,881.6598L753.26385,881.6594Q753.264,821.39575,753.2636,761.1321Q743.14703,761.13135,733.03046,761.13086Q733.03046,821.39575,733.03046,881.6604"/>
</g>
<g style="fill:rgb(0,145,166); fill-opacity:1.0; stroke-linejoin: miter">
<path d="M744.5833,899.0747L743.12787,899.07434L741.6724,899.07434Q741.6724,818.8357,741.6722,738.59656Q743.1276,738.59656,744.58307,738.59644Q744.58344,818.8357,744.5833,899.0747"/>
</g>
<g style="fill:rgb(0,145,166); fill-opacity:1.0; stroke-linejoin: miter">
<path d="M758.84735,853.4474L768.9637,853.4468L779.0804,853.4463Q779.0804,793.1826,779.0809,732.91895Q768.9637,732.91846,758.8472,732.91785Q758.84735,793.1826,758.84735,853.4474"/>
</g>
<g style="fill:rgb(0,145,166); fill-opacity:1.0; stroke-linejoin: miter">
<path d="M770.4001,870.8617L768.9445,870.8616L767.4891,870.86145Q767.4893,790.62256,767.4891,710.3834Q768.9443,710.3834,770.3997,710.3832Q770.4001,790.62256,770.4001,870.8617"/>
</g>
<g style="fill:rgb(0,145,166); fill-opacity:1.0; stroke-linejoin: miter">
<path d="M784.6641,806.63916L794.7808,806.6388L804.8974,806.6384Q804.8974,746.3745,804.89716,686.1107Q794.7807,686.11035,784.6639,686.1096Q784.6641,746.37463,784.6641,806.63916"/>
</g>
<g style="fill:rgb(0,145,166); fill-opacity:1.0; stroke-linejoin: miter">
<path d="M796.2166,824.05347L794.7613,824.05347L793.30585,824.05347Q793.30585,743.8142,793.30597,663.57544Q794.76117,663.5753,796.2166,663.5752Q796.2166,743.8142,796.2166,824.05347"/>
</g>
<g style="fill:rgb(0,145,166); fill-opacity:1.0; stroke-linejoin: miter">
<path d="M810.4808,764.7388L820.5976,764.7383L830.7143,764.7378Q830.71405,704.4739,830.71405,644.21Q820.5971,644.2093,810.4803,644.2088Q810.4804,704.4739,810.4808,764.7388"/>
</g>
<g style="fill:rgb(0,145,166); fill-opacity:1.0; stroke-linejoin: miter">
<path d="M822.0336,782.1531L820.57806,782.15393L819.1226,782.15295Q819.1225,701.9138,819.1225,621.675Q820.57794,621.67456,822.0334,621.6745Q822.03326,701.91394,822.0336,782.1531"/>
</g>
<g style="fill:rgb(0,145,166); fill-opacity:1.0; stroke-linejoin: miter">
<path d="M836.2974,737.1669L846.41437,737.1664L856.53107,737.1659Q856.53107,676.9022,856.53094,616.6382Q846.41425,616.6377,836.2974,616.63715Q836.2974,676.9021,836.2974,737.1669"/>
</g>
<g style="fill:rgb(0,145,166); fill-opacity:1.0; stroke-linejoin: miter">
<path d="M847.85004,754.5812L846.39496,754.5812L844.93964,754.5812Q844.93964,674.3419,844.9395,594.103Q846.39496,594.1028,847.85016,594.10266Q847.8503,674.3419,847.85004,754.5812"/>
</g>
<g style="fill:rgb(0,145,166); fill-opacity:1.0; stroke-linejoin: miter">
<path d="M-9.615631,481.64688L-9.615631,481.64755L-9.615631,481.64856L-16.317177,478.26544C-3.3555908,468.69492,11.496124,457.47504,24.361092,457.47504L24.361092,457.4759C34.03961,457.47507,41.566715,463.52414,46.53723,476.10803L46.53723,476.10904C53.136818,492.81686,56.199753,523.3946,58.631756,547.35425L58.631756,547.3551C60.36407,564.421,61.743843,577.5427,63.49862,581.9855L63.49862,581.9863C63.63601,582.33325,63.72425,582.4829,63.738228,582.5045L63.738304,582.50476C63.77559,582.5627,63.584167,582.2263,63.06024,581.9069L63.060066,581.90674C62.628784,581.644,62.048107,581.4423,61.37939,581.4423L61.37939,581.4431C60.001877,581.4423,59.353268,582.2505,59.493435,582.1009L59.493435,582.1017C61.509773,579.9497,65.03259,567.8572,69.57979,551.5265L69.57979,551.52734C74.5589,533.64514,80.53618,511.91824,86.81163,503.05L86.81167,503.05066C89.6611,499.0231,93.13114,496.7657,97.26625,496.76572L97.26625,496.76654C101.87247,496.76572,106.144035,499.76276,108.98654,501.63818L108.98654,501.6389C112.73906,504.11392,115.19075,505.5682,117.448135,505.5682L117.448135,505.56903C118.87891,505.5682,121.24333,504.91452,124.51079,500.1824L124.51079,500.1834C129.05618,493.59995,134.11539,480.96317,139.8565,466.53763L139.8565,466.53845C146.33215,450.2659,153.58646,431.97043,161.5384,420.45477L161.5384,420.45575C166.14554,413.7827,172.04588,407.78943,179.37,407.78943L179.37,407.79047C181.17581,407.78943,182.95602,408.16235,184.68341,408.8911L184.68341,408.89194C199.07944,414.96335,213.35703,450.02484,227.1784,483.0521L227.1784,483.05295C238.60834,510.36447,250.28621,538.2064,262.15527,554.937L262.15527,554.93787C277.6339,576.7557,293.30927,579.37573,306.89648,581.68097L306.89648,581.6819C316.06805,583.23694,325.9596,584.72864,332.5747,593.657L332.5747,593.6578C339.03326,602.37427,342.01373,618.0165,345.12674,633.79663L345.12674,633.79736C349.31076,655.00586,353.91605,677.93774,365.55313,693.6444L365.55313,693.64514C366.0064,694.2562,366.47232,694.85925,366.94614,695.44653L366.94623,695.44653C375.4645,706.00476,387.71582,713.06287,402.93402,721.75244L402.93402,721.7533C423.61166,733.5597,448.65634,747.83936,472.63092,777.55457L472.63092,777.55566C476.21274,781.99426,479.76654,786.7726,483.2785,791.9359L483.2785,791.9364C506.88773,826.64404,528.6115,878.824,546.2574,921.1697L546.2574,921.1703C558.69696,951.02124,568.9583,975.5823,576.5356,986.7218L576.5356,986.7217C578.267,989.26697,579.6219,990.7438,580.5724,991.44275L580.5723,991.4425C581.0246,991.7749,581.2458,991.82544,581.2475,991.8257L581.24677,991.8257C581.24426,991.8251,581.21783,991.8197,581.1705,991.8197L581.1705,991.82043C581.04266,991.8197,580.9465,991.85706,580.92596,991.8677L582.8426,995.6094L582.8426,995.61035L582.8426,995.6094L582.8426,995.61035L580.9262,991.8673C586.2712,989.1299,589.2055,958.8412,591.7314,925.46765L591.7314,925.4686C593.05756,907.9481,594.3282,890.97876,596.55597,881.5171L596.55597,881.51794C597.788,876.2838,599.58246,872.00366,602.8265,869.92334L602.8266,869.92334C604.1517,869.0735,605.6099,868.6637,607.0981,868.6637L607.0981,868.66455C607.2985,868.6637,607.49615,868.67114,607.69147,868.6853L607.6911,868.6853C612.3935,869.02356,616.8792,873.66724,619.57477,876.2505L619.5749,876.2505C623.8464,880.34436,626.217,882.2168,627.6596,882.2168L627.6596,882.2175C627.7166,882.2168,628.17303,882.2888,629.06964,881.14185L629.06964,881.14185C633.1661,875.9026,636.92316,859.0453,641.4339,838.09546L641.4339,838.09656C646.35834,815.224,652.05475,788.4596,660.7077,774.6057L660.7077,774.6068C667.58124,763.6011,676.4604,760.26526,685.013,760.26526L685.013,760.26636C690.7795,760.26526,696.29425,761.7826,700.4577,762.9104L700.4577,762.91113C703.8287,763.82336,705.92316,764.35425,707.3077,764.35425L707.3077,764.355C707.6347,764.35425,707.7725,764.319,707.78253,764.3159L707.78253,764.3168C707.7769,764.3176,707.66254,764.35266,707.5136,764.46814L707.51385,764.468C707.37274,764.5774,707.31244,764.67236,707.30927,764.6775L707.30927,764.67834C707.89154,763.7208,707.9577,760.6692,707.6204,753.0032L707.6204,753.00415C707.03485,739.70874,706.07074,718.3646,716.6359,693.76685L716.6359,693.76746C733.25555,655.0724,778.4639,608.58826,822.68036,563.0264C824.29767,561.3602,826.95917,561.3203,828.6254,562.93726C830.2918,564.55444,830.3316,567.21625,828.71454,568.8824L828.71454,568.8833C783.9698,614.9889,740.216,660.1736,724.3619,697.0851L724.3619,697.08594C714.5994,719.81433,715.44244,739.5029,716.0207,752.6332L716.0207,752.63403C716.2834,758.5995,716.77875,765.29236,714.4914,769.0498L714.49164,769.04956C714.0345,769.8003,713.43695,770.51575,712.665,771.11426L712.665,771.11426C711.8536,771.74304,710.9716,772.14856,710.1027,772.3978L710.1027,772.3987C709.1407,772.6741,708.1844,772.7628,707.3077,772.7628L707.3077,772.76355C704.53754,772.7628,701.1678,771.81396,698.2598,771.02637L698.2596,771.0272C693.9421,769.85706,689.48615,768.6738,685.0131,768.6738L685.0131,768.6747C679.1451,768.6738,673.066,770.6925,667.8394,779.0603L667.8394,779.06104C660.16766,791.34314,654.7424,816.23364,649.654,839.8655L649.654,839.8666C645.44977,859.39246,641.3321,879.1094,635.6938,886.32104L635.6938,886.32166C633.59406,889.0066,630.87775,890.6255,627.6596,890.6255L627.6596,890.6261C622.00555,890.6255,616.7966,885.2345,613.7568,882.32104L613.7568,882.32104C609.86847,878.5947,607.9876,877.13684,607.08746,877.07214L607.08673,877.07214C607.08673,877.07214,607.0916,877.07227,607.0981,877.07227L607.0981,877.0731C607.2,877.07227,607.3205,877.0305,607.36566,877.00146L607.36566,877.00134C607.17694,877.1223,605.95087,878.3043,604.74066,883.4442L604.74066,883.4452C602.7038,892.0947,601.4704,908.2063,600.116,926.1023L600.116,926.10315C597.9427,954.8168,595.6351,993.7811,584.75903,999.35156L582.8426,995.6094L582.8426,995.61035L582.8426,995.6094L582.8426,995.61035L584.7596,999.3513C583.6731,999.90796,582.4619,1000.2283,581.1705,1000.2283L581.1705,1000.2289C580.58954,1000.2283,580.0186,1000.1633,579.46063,1000.042L579.4598,1000.042C578.02106,999.729,576.7308,999.0547,575.5915,998.21716L575.5915,998.2168C573.4771,996.6625,571.47894,994.2378,569.58325,991.4509L569.5831,991.4509C561.3899,979.406,550.7233,953.74646,538.4958,924.4038L538.4958,924.40466C520.73663,881.78625,499.34952,830.51196,476.32608,796.6648L476.32608,796.66565C472.94077,791.68787,469.52377,787.0946,466.08673,782.8345L466.08673,782.83545C443.17252,754.4332,419.33334,740.79956,398.7646,729.05444L398.7646,729.0554C383.8841,720.5576,370.1039,712.75146,360.40198,700.72644L360.40216,700.72656C359.85275,700.04565,359.31845,699.3539,358.797,698.65027L358.797,698.65076C345.81073,681.12256,340.95822,656.1105,336.87726,635.42395L336.87726,635.4248C333.57715,618.6953,330.86334,605.4718,325.81842,598.6627L325.81842,598.6636C321.53394,592.88,315.3101,591.6371,305.48987,589.9708L305.48987,589.9717C291.17078,587.54156,272.72827,584.3728,255.29724,559.8025L255.29724,559.80316C242.76039,542.1304,230.69702,513.2413,219.42177,486.29816L219.42177,486.299C204.49628,450.6325,191.68799,420.9714,181.41544,416.63858L181.41544,416.63943C180.66536,416.32208,179.99321,416.1978,179.37,416.1978L179.37,416.19882C176.70715,416.1978,173.03003,418.61087,168.45758,425.23254L168.45758,425.23337C161.17337,435.78143,154.28851,453.01376,147.66898,469.6467L147.66898,469.6477C142.1162,483.59903,136.6581,497.3892,131.43005,504.96024L131.43005,504.96103C127.29309,510.95132,122.67999,513.9769,117.44812,513.9769L117.44812,513.9776C112.17139,513.9769,107.49262,510.72632,104.35581,508.65677L104.35584,508.65747C100.76122,506.28503,98.806465,505.17426,97.26625,505.17426L97.26625,505.17493C96.69257,505.17426,95.50056,505.32773,93.67543,507.90683L93.67547,507.90683C88.48377,515.2438,82.918686,534.969,77.680145,553.7821L77.680145,553.7829C73.63336,568.31525,69.49889,583.7219,65.62813,587.8512L65.62813,587.85205C64.94535,588.5798,63.50848,589.8511,61.37939,589.8511L61.37939,589.85187C60.364357,589.8511,59.446297,589.55133,58.684437,589.0872L58.68431,589.08704C57.69828,588.4861,57.059875,587.66565,56.664818,587.0509L56.664906,587.0509C56.25751,586.41705,55.93734,585.7306,55.678127,585.0746L55.678127,585.07544C53.366978,579.2234,51.906143,564.3592,50.26626,548.2035L50.26626,548.20435C47.77381,523.6483,44.77888,494.545,38.716694,479.19705L38.716694,479.19794C34.51535,468.5605,29.405678,465.88342,24.361092,465.88342L24.361092,465.88428C14.954567,465.88342,2.7608871,474.631,-11.322586,485.02975C-12.599098,485.97247,-14.297531,486.11588,-15.714119,485.40088C-17.130722,484.6859,-18.02414,483.23447,-18.02414,481.64755L-18.02414,481.64856L-18.02414,481.64688C-18.02414,479.3248,-16.141808,477.44247,-13.819862,477.44247C-11.497879,477.44247,-9.615631,479.3248,-9.615631,481.64688 Z"/>
</g>
</g>
<g style="fill:rgb(22,83,83); fill-opacity:1.0; stroke-linejoin: miter">
<path d="M99.665054,1068.3707L494.43106,788.6935L648.81976,935.3778L994.7291,724.15295L1029.6626,819.32605L630.5646,1025.0271L494.77298,881.5453L99.665054,1068.3707"/>
</g>
<g style="fill:rgb(22,83,83); fill-opacity:1.0; stroke-linejoin: miter">
<path d="M952.8547,674.4762L952.8547,674.47675L1054.2283,874.35956Q1117.1858,781.35504,1180.144,688.3505L952.8547,674.4762"/>
</g>
<g style="fill:rgb(125,196,102); fill-opacity:1.0; stroke-linejoin: miter">
<path d="M89.49291,1054.8306L484.25906,775.15326L638.6476,921.8376L984.557,710.61273L1019.4904,805.7856L620.39233,1011.4869L484.6007,868.0048L89.49291,1054.8306"/>
</g>
<g style="fill:rgb(125,196,102); fill-opacity:1.0; stroke-linejoin: miter">
<path d="M942.6826,660.936L942.6826,660.9363L1044.0559,860.81934Q1107.0137,767.8149,1169.9719,674.8103L942.6826,660.936"/>
</g>
<g style="fill:rgb(255,81,0); fill-opacity:0.99607843; stroke-linejoin: miter">
<path d="M516.286,930.0682L516.286,930.0692L516.286,930.07086L516.286,930.0682"/>
</g>
<g style="fill:rgb(227,237,242); fill-opacity:0.99607843; stroke-linejoin: miter">
<path d="M362.40314,507.69415L362.40326,507.69443L362.40314,507.69443L362.40314,507.69415L362.40326,507.69443L362.40314,507.69415L362.40314,507.69443Q362.40314,507.69415,362.40314,507.69415 Z"/>
</g>
<g style="fill:rgb(22,83,83); fill-opacity:1.0; stroke-linejoin: miter">
<path d="M-407.626,830.1132L-12.860064,1109.7906L141.52873,963.1064L487.43796,1174.3312L522.37134,1079.1583L123.2736,873.45715L-12.518095,1016.93896L-407.626,830.1132"/>
</g>
<g style="fill:rgb(22,83,83); fill-opacity:1.0; stroke-linejoin: miter">
<path d="M445.56342,1224.0078L445.56342,1224.0073L546.937,1024.1249Q609.8947,1117.1293,672.8527,1210.1337L445.56342,1224.0078"/>
</g>
<g style="fill:rgb(255,0,58); fill-opacity:1.0; stroke-linejoin: miter">
<path d="M-417.79816,843.65344L-23.03206,1123.3308L131.35661,976.6466L477.2658,1187.8715L512.1992,1092.6987L113.10132,886.99725L-22.690361,1030.4794L-417.79816,843.65344"/>
</g>
<g style="fill:rgb(255,0,58); fill-opacity:1.0; stroke-linejoin: miter">
<path d="M435.39142,1237.5482L435.39142,1237.548L536.7648,1037.665Q599.7225,1130.6694,662.6806,1223.6738L435.39142,1237.5482"/>
</g>
<g style="fill:rgb(255,81,0); fill-opacity:0.99607843; stroke-linejoin: miter">
<path d="M8.994959,968.416L8.994959,968.4149L8.994959,968.4133L8.994959,968.416"/>
</g>
<g style="fill:rgb(254,197,161); fill-opacity:1.0; stroke-linejoin: miter">
<path d="M245.30054,228.85269Q245.12079,229.32468,245.92989,230.84604Q244.16635,231.62442,245.1017,232.79935Q245.4268,233.23117,246.00702,233.76895Q250.60995,237.75685,252.19026,239.4319Q254.61884,241.86726,259.50284,247.30896L259.55618,247.38318Q258.40335,247.38776,258.0261,247.55042Q257.5824,247.71075,257.47836,248.08594Q257.28018,248.99084,258.55722,250.8194Q260.36578,253.67589,269.02252,261.0753L294.19724,268.17172Q292.43127,255.00365,289.56506,249.04169Q286.7892,242.59143,280.18408,237.33192Q270.8659,230.13461,260.84433,227.02676L255.98557,226.25766Q255.59467,226.19363,255.3318,226.25797Q255.06104,226.30441,254.95634,226.67868L254.78978,228.48642Q254.63829,228.81577,254.31807,228.7958Q253.97395,228.79556,253.18144,228.37613L249.94403,226.49442Q249.27594,226.17984,248.95099,226.238Q248.31204,226.21469,248.28654,227.78647Q245.95569,227.5864,245.30562,228.83548 Z"/>
</g>
<g style="fill:rgb(255,255,255); fill-opacity:1.0; stroke-linejoin: miter">
<path d="M267.82007,259.58182L267.40424,272.2014L299.15155,285.69577L295.84488,266.34323L294.97046,265.57785Q293.0989,264.0001,291.85098,263.44016Q291.33487,263.2023,290.82495,263.05234Q287.8432,262.3771,287.7258,262.1777Q287.39886,261.99954,287.1335,261.699Q286.02048,260.18204,285.82126,260.04208Q285.4072,259.61478,284.8036,259.21597Q283.17642,258.16647,280.83502,257.62656Q276.53647,256.34525,267.864,259.56723 Z"/>
</g>
<g style="fill:rgb(4,0,0); fill-opacity:1.0; stroke-linejoin: miter">
<path d="M252.16196,272.5975Q239.9694,276.44034,233.36594,285.60928Q225.05695,297.51483,224.5603,310.15146Q224.19763,319.1379,229.86221,330.72986Q235.1922,341.8264,249.98697,362.44574L286.61868,279.00342Q273.83633,269.65945,270.8012,269.75497Q264.42725,268.77518,252.24957,272.5687 Z"/>
</g>
<g style="fill:rgb(254,197,161); fill-opacity:1.0; stroke-linejoin: miter">
<path d="M273.0099,276.05118Q265.3845,277.0478,258.33383,281.64462Q250.81499,286.78354,249.61151,291.6295Q249.17812,294.0689,251.10606,295.5746Q252.05528,296.37885,253.55019,297.13098L261.11084,300.61365Q262.9925,301.7344,263.61478,303.3439Q264.06827,304.38785,264.03384,306.2222L263.30588,313.8052L263.35205,324.26013Q263.24414,326.00232,262.91574,326.34796Q262.41608,326.98346,261.50394,326.75018Q254.59113,324.4743,251.70354,324.2002Q248.89621,323.83078,246.6741,324.23145Q241.35211,325.37244,240.02718,330.7057Q239.3053,333.9691,241.32002,337.15024Q241.28188,337.9379,250.10368,345.88464Q251.77571,347.7693,252.13258,349.27643Q253.462,352.75488,248.4921,360.6209L251.88103,372.63547L311.8369,387.43625Q312.97687,380.23996,314.27933,378.07095Q314.88718,376.88242,315.79614,375.9481Q320.25974,372.42465,320.61935,371.59744Q321.82257,370.02005,322.17075,367.49503Q322.511,365.0259,321.89023,360.3136L319.18097,345.09122Q319.13556,344.48508,319.21243,343.90677Q320.10074,341.482,320.11588,339.0802Q320.26093,334.78235,319.80096,329.8238Q319.35236,324.48334,317.9355,324.4992Q322.49637,319.50797,321.23596,315.89835Q320.4693,312.93588,311.91837,307.8339Q312.4352,304.73544,312.18292,303.82187Q312.264,303.19193,310.33197,301.13312Q310.65875,298.33337,309.29272,296.06525Q306.6157,291.42404,299.44736,285.33286Q286.20535,274.11948,273.0617,276.04453 Z"/>
</g>
<g style="fill:rgb(254,197,161); fill-opacity:1.0; stroke-linejoin: miter">
<path d="M-50.66807,594.22455Q-51.252983,598.6807,-45.025265,598.4709Q-48.698696,601.4169,-48.633114,604.1201Q-48.41702,606.4054,-44.17291,607.10706Q-39.5553,607.8297,-28.978806,606.99756Q-26.447083,606.9888,6.111236,603.18823Q-0.7418147,608.0194,-2.9440682,610.0825Q-5.9079785,612.7578,-6.8077736,614.8683Q-7.888323,617.412,-6.502323,619.7395Q-4.8470817,622.135,-2.0933459,622.21106Q0.11021949,622.3041,3.1728997,620.0282Q4.385759,619.121,5.758102,617.80664L10.539561,612.8136Q11.476587,611.8823,11.8783655,611.66736Q15.494116,612.0488,23.745207,605.8458Q35.150036,597.61053,35.289234,595.23413L36.37161,589.1001Q36.949627,586.9021,38.893444,582.0879L26.834839,566.3851Q16.299517,567.86615,12.399178,569.07745Q8.264416,570.2434,3.439272,573.2429Q-15.45562,570.688,-18.648151,572.33984Q-22.872437,574.3724,-19.21062,576.86285Q-18.088278,577.4478,-15.73513,577.8086Q-6.513339,578.52637,-5.6237063,578.9168Q-37.263702,579.6482,-37.65593,580.948Q-40.21896,581.8551,-40.788097,583.57495Q-41.273434,585.1201,-39.35185,586.1865Q-37.15349,587.60425,-24.359055,587.5914Q-39.126675,588.9194,-44.138268,590.2555Q-49.638874,591.5729,-50.644985,594.15924 Z"/>
</g>
<g style="fill:rgb(0,0,0); fill-opacity:1.0; stroke-linejoin: miter">
<path d="M244.34804,784.428Q226.69562,794.8485,219.61705,800.6013Q211.89183,806.60547,207.42223,813.6594Q201.63188,822.6157,198.6657,837.16705Q197.25359,845.6861,201.60309,851.29816Q208.44518,859.49286,218.33113,856.20685Q221.36967,855.1274,225.41473,852.5461Q225.08052,853.00824,241.92863,840.9489Q246.00874,838.1932,250.2629,835.87225Q260.65335,830.16595,275.52365,824.84644L244.39372,784.4862 Z"/>
</g>
<g style="fill:rgb(0,0,0); fill-opacity:1.0; stroke-linejoin: miter">
<path d="M703.7783,722.78955L716.7714,725.1345L717.6516,732.7804Q723.73846,732.4435,726.4836,732.501Q729.5441,732.5397,731.383,732.97217Q732.7231,733.26807,733.77344,734.0321L737.0093,737.5918Q738.07275,738.4635,739.8052,739.03564Q741.6187,739.6693,745.1003,740.1858Q761.144,741.8716,761.1423,742.1527Q763.7318,742.5748,766.13434,744.60986Q773.2529,742.7052,776.3361,733.02075Q778.00494,727.1511,777.9396,717.50684Q778.1729,716.93115,776.782,684.65594L776.88434,662.72424Q776.7739,658.59985,776.3388,655.32947Q772.3554,630.217,762.963,628.4692Q761.0138,628.1081,760.80585,630.5063Q751.5083,632.0007,749.07587,635.357Q747.77936,636.85846,747.2483,639.50946Q746.181,653.07043,745.19354,655.46936Q743.9183,660.15186,741.376,664.01416Q735.9824,673.0603,712.8836,691.1257L703.7888,722.7523 Z"/>
</g>
<g style="fill:rgb(0,0,0); fill-opacity:1.0; stroke-linejoin: miter">
<path d="M294.8944,594.5279Q289.56314,610.94006,289.63083,619.3447Q288.96515,626.2357,293.16278,649.4627Q293.6646,654.6447,292.83798,661.3886L282.34354,704.78973L274.3305,752.4129Q272.41776,760.1278,268.01807,765.4082Q266.72656,767.0526,263.56778,769.5025Q248.68631,778.5085,246.28891,781.34015Q240.56776,786.7123,240.10551,792.2505Q241.78539,810.54004,275.57968,827.61554Q284.4108,830.5147,288.84927,827.835Q291.36633,826.7368,295.14896,821.83606Q301.23697,822.4253,312.21823,814.76Q319.24692,810.00354,323.16446,804.7273Q329.27573,797.1461,338.22647,775.8643Q351.39227,757.40845,356.8877,746.7062Q363.75497,734.16235,371.94177,706.4738L388.37134,679.1328L528.5353,671.00696Q549.1222,679.80774,567.56964,682.17847Q609.26965,703.058,701.4648,731.68567Q708.7722,719.4158,710.5935,714.1581L712.1449,708.5593Q713.03265,693.7255,713.9433,693.3619L723.51355,675.8602Q725.30273,672.1002,726.3096,664.7755Q698.1145,657.91846,683.11835,655.30066L645.59973,651.1858Q638.71875,650.2804,632.14526,648.0698Q623.3991,645.08923,612.8645,639.3478Q608.6913,637.6161,572.11316,614.30786Q563.65283,609.4437,557.19604,607.3235Q554.2998,605.0867,517.84204,601.5913Q472.80237,592.1799,470.2223,592.5549Q454.87286,590.5699,430.9794,592.95215Q434.81815,571.11084,424.7026,573.0133L411.03436,576.1113Q358.5981,573.2552,343.49524,576.6692Q323.94528,579.4829,295.01797,594.46686 Z"/>
</g>
<g style="fill:rgb(255,255,255); fill-opacity:1.0; stroke-linejoin: miter">
<path d="M250.40184,367.10666L249.09633,377.73032Q237.346,389.09586,230.63509,393.93787Q228.02751,396.30853,213.28094,403.95184Q210.96265,405.3166,208.94145,407.19617Q205.94466,409.38763,199.30518,421.39005L186.22098,431.3309Q185.1722,431.36136,181.22195,442.31122Q179.09001,445.58487,175.65985,448.34244L143.91376,470.42267Q139.90431,473.19193,128.06487,487.09467Q126.82363,488.91382,116.1605,488.80994Q114.27233,489.22882,112.614624,490.21832Q110.25746,491.66144,108.33493,493.48248Q93.796196,508.71768,90.94519,510.0012Q88.672676,511.52597,86.304054,512.5496Q71.75591,517.6994,67.04229,520.5267Q58.653275,524.9907,53.802494,530.03503Q51.343826,532.7834,50.452988,534.94836Q46.725235,548.51776,43.819355,550.64703Q38.924404,556.3725,22.065594,565.4653L39.295876,589.73364L66.80088,571.2907Q104.85414,553.8414,121.839516,543.4139Q130.81192,538.4211,167.44688,513.2896Q173.59952,509.2683,180.03223,505.64517Q192.9323,498.0607,227.36333,484.60693Q241.29857,503.94717,247.52486,509.89694Q251.17511,514.31836,269.3997,527.20935Q271.94473,529.2527,273.5967,531.675Q274.7236,533.2607,275.17007,536.15375Q274.566,547.8118,275.53854,547.4782Q275.01675,548.6163,284.66534,554.2281Q286.3137,555.52826,286.9248,557.62994Q287.33997,559.818,286.7186,562.24884Q281.95972,576.31525,282.75586,577.1585Q283.0523,581.0971,287.63574,582.8021Q291.04388,584.0063,293.5756,583.9826L411.22144,555.1441Q418.6068,541.8404,392.13882,493.24094Q379.4021,469.24753,367.09625,449.98346Q362.72546,442.0899,330.72186,399.33963Q314.38986,375.90347,315.64917,374.15933Q311.43457,383.16867,301.0238,381.74557Q300.13263,383.09598,268.28632,371.37662Q262.40436,369.62668,250.68678,367.16745 Z"/>
</g>
<g style="fill:rgb(0,0,0); fill-opacity:1.0; stroke-linejoin: miter">
<path d="M411.35663,554.9993L379.41052,559.26196L379.2226,559.27795Q359.13535,560.0627,348.41055,561.78784Q335.57687,563.6596,321.82248,568.53864Q310.8832,572.304,290.4453,581.3015L295.54266,595.5223L310.46448,586.9123Q331.89438,579.2853,342.7094,577.71173Q351.52185,576.20703,366.70175,575.9273Q378.43347,575.63416,408.1141,575.66125L414.88495,576.0642Q415.9288,569.8925,415.25568,566.3009Q414.7044,562.56366,411.3947,555.0877 Z"/>
</g>
<g style="fill:rgb(0,0,0); fill-opacity:1.0; stroke-linejoin: miter">
<path d="M311.1505,380.4586Q308.45358,380.51285,307.60577,382.64114Q305.11362,388.5474,306.1946,390.27585Q306.50958,390.5579,306.96814,390.60056Q310.7006,390.4645,311.99347,391.12796Q320.01492,396.44003,320.96857,396.32846Q322.01614,396.64737,323.11874,396.77017L328.83295,397.30832Q329.98804,397.73068,329.72842,399.0405Q329.41595,400.58633,328.04398,402.86972Q320.7647,413.36862,321.2749,413.3914L315.57565,431.67636Q313.8727,436.5727,310.9405,442.61517L279.23883,503.55014L288.66467,523.8837L314.30847,522.0801L334.95267,483.24188Q338.3911,475.93793,340.0915,464.72342Q342.74496,445.62952,342.43423,432.74298Q342.57327,427.30777,339.25223,417.3234Q340.29782,408.29358,337.55905,400.9106Q335.18628,394.02798,331.77725,391.47073Q330.3786,390.3962,328.8373,389.76578L323.26437,388.06412L321.52304,387.2463Q320.6791,387.23978,319.30515,383.02377Q318.94553,382.41006,317.91293,381.79123Q315.04468,380.405,311.28442,380.45316 Z"/>
</g>
<g style="fill:rgb(0,0,0); fill-opacity:1.0; stroke-linejoin: miter">
<path d="M300.20782,303.19876L300.20782,303.19885Q297.36084,303.20444,295.52487,303.45877Q293.55933,303.76318,292.46317,304.35825Q291.9379,304.6293,291.4673,304.9797Q291.20526,305.11615,290.1536,306.17355Q289.12555,307.2653,287.5812,309.67496L300.20782,303.19876"/>
</g>
<g style="fill:rgb(255,255,255); fill-opacity:1.0; stroke-linejoin: miter">
<path d="M300.19876,308.87332L300.1988,308.87332L300.1988,308.87335L300.19876,308.87332"/>
</g>
<g style="fill:rgb(255,255,255); fill-opacity:1.0; stroke-linejoin: miter">
<path d="M299.17957,308.7438L299.17957,308.74387L296.79843,314.59702Q299.61197,313.96127,302.4255,313.32556L299.17957,308.7438"/>
</g>
<g style="fill:rgb(0,0,0); fill-opacity:1.0; stroke-linejoin: miter">
<path d="M299.20526,308.97665L299.49512,309.00748Q300.21304,309.09088,300.3421,309.12122Q301.00552,309.25592,301.10742,309.31192Q301.34277,309.39392,301.5419,309.51016L301.72968,309.63705Q301.90723,309.7736,302.03488,309.95706L302.1485,310.1537L302.23718,310.37378L302.30313,310.61526Q302.35773,310.86743,302.37604,311.15372Q302.43085,311.861,302.2499,313.39706L299.20526,308.97665"/>
</g>
<g style="fill:rgb(0,0,0); fill-opacity:1.0; stroke-linejoin: miter">
<path d="M308.1978,336.1664L308.19785,336.16647L308.19785,336.1665L308.1978,336.1664"/>
</g>
<g style="fill:rgb(255,0,0); fill-opacity:1.0; stroke-linejoin: miter">
<path d="M320.14557,337.48676Q319.64258,337.66544,319.17685,337.88437Q317.31998,338.80838,316.9921,339.118Q316.29276,339.60715,315.67715,340.1959Q315.06155,340.78464,314.57053,341.4692L314.12076,342.17685Q313.70724,342.908,313.4794,343.7294Q313.03287,345.39713,313.44467,347.30246L313.69205,348.23825Q313.98813,349.17606,314.45798,350.0701Q314.92783,350.96414,315.55045,351.76236Q317.60995,354.4902,320.9665,355.12347L319.18097,345.09122Q319.13556,344.48508,319.21243,343.90677Q320.10074,341.482,320.11588,339.0802Q320.1424,338.29453,320.14868,337.48676 Z"/>
</g>
</g>
</svg>